G04 #@! TF.GenerationSoftware,KiCad,Pcbnew,8.0.2*
G04 #@! TF.CreationDate,2024-05-28T17:16:42+09:00*
G04 #@! TF.ProjectId,LLv2_L,4c4c7632-5f4c-42e6-9b69-6361645f7063,rev?*
G04 #@! TF.SameCoordinates,Original*
G04 #@! TF.FileFunction,Legend,Bot*
G04 #@! TF.FilePolarity,Positive*
%FSLAX46Y46*%
G04 Gerber Fmt 4.6, Leading zero omitted, Abs format (unit mm)*
G04 Created by KiCad (PCBNEW 8.0.2) date 2024-05-28 17:16:42*
%MOMM*%
%LPD*%
G01*
G04 APERTURE LIST*
%ADD10C,2.000000*%
%ADD11C,1.665000*%
%ADD12C,2.200000*%
%ADD13C,1.800000*%
G04 APERTURE END LIST*
%LPC*%
D10*
G04 #@! TO.C,Home*
X5250000Y-6250000D03*
X11750000Y-6250000D03*
X5250000Y-10750000D03*
X11750000Y-10750000D03*
G04 #@! TD*
D11*
G04 #@! TO.C,IC1*
X106270000Y-58270000D03*
X101190000Y-55730000D03*
X98650000Y-55730000D03*
X96110000Y-55730000D03*
X93570000Y-55730000D03*
X91030000Y-55730000D03*
X88490000Y-55730000D03*
X85950000Y-55730000D03*
X83410000Y-55730000D03*
X80870000Y-55730000D03*
X78330000Y-55730000D03*
X75790000Y-55730000D03*
X73250000Y-55730000D03*
X70710000Y-55730000D03*
X68170000Y-60810000D03*
X68170000Y-63350000D03*
X68170000Y-65890000D03*
X68170000Y-68430000D03*
X68170000Y-70970000D03*
X70710000Y-76050000D03*
X73250000Y-76050000D03*
X75790000Y-76050000D03*
X78330000Y-76050000D03*
X80870000Y-76050000D03*
X83410000Y-76050000D03*
X85950000Y-76050000D03*
X88490000Y-76050000D03*
X91030000Y-76050000D03*
X93570000Y-76050000D03*
X96110000Y-76050000D03*
X98650000Y-76050000D03*
X101190000Y-76050000D03*
X103730000Y-76050000D03*
X106270000Y-70970000D03*
G04 #@! TD*
D12*
G04 #@! TO.C,\u2191*
X107000000Y-92400000D03*
X102000000Y-90300000D03*
G04 #@! TD*
G04 #@! TO.C,\u2192*
X88188666Y-41082888D03*
X83188666Y-38982888D03*
G04 #@! TD*
G04 #@! TO.C,\u2190*
X43073178Y-40375310D03*
X38073178Y-38275310D03*
G04 #@! TD*
G04 #@! TO.C,\u2193*
X65429057Y-35293440D03*
X60429057Y-33193440D03*
G04 #@! TD*
D13*
G04 #@! TO.C,J1*
X122250000Y-6300000D03*
X122250000Y-10400000D03*
X117750000Y-11500000D03*
X122250000Y-3200000D03*
G04 #@! TD*
D10*
G04 #@! TO.C,Menu*
X29250000Y-6250000D03*
X35750000Y-6250000D03*
X29250000Y-10750000D03*
X35750000Y-10750000D03*
G04 #@! TD*
D12*
G04 #@! TO.C,L3*
X22729210Y-51105121D03*
X17729210Y-49005121D03*
G04 #@! TD*
D10*
G04 #@! TO.C,Start*
X17250000Y-6250000D03*
X23750000Y-6250000D03*
X17250000Y-10750000D03*
X23750000Y-10750000D03*
G04 #@! TD*
%LPD*%
M02*
