G04 #@! TF.GenerationSoftware,KiCad,Pcbnew,8.0.2*
G04 #@! TF.CreationDate,2024-05-28T17:16:42+09:00*
G04 #@! TF.ProjectId,LLv2_L,4c4c7632-5f4c-42e6-9b69-6361645f7063,rev?*
G04 #@! TF.SameCoordinates,Original*
G04 #@! TF.FileFunction,Legend,Top*
G04 #@! TF.FilePolarity,Positive*
%FSLAX46Y46*%
G04 Gerber Fmt 4.6, Leading zero omitted, Abs format (unit mm)*
G04 Created by KiCad (PCBNEW 8.0.2) date 2024-05-28 17:16:42*
%MOMM*%
%LPD*%
G01*
G04 APERTURE LIST*
%ADD10C,0.200000*%
%ADD11C,0.150000*%
%ADD12C,0.100000*%
%ADD13C,0.120000*%
%ADD14C,2.000000*%
%ADD15C,1.665000*%
%ADD16C,2.200000*%
%ADD17C,1.800000*%
G04 APERTURE END LIST*
D10*
X13000000Y-8500000D02*
G75*
G02*
X4000000Y-8500000I-4500000J0D01*
G01*
X4000000Y-8500000D02*
G75*
G02*
X13000000Y-8500000I4500000J0D01*
G01*
X25000000Y-8500000D02*
G75*
G02*
X16000000Y-8500000I-4500000J0D01*
G01*
X16000000Y-8500000D02*
G75*
G02*
X25000000Y-8500000I4500000J0D01*
G01*
X98688666Y-35182888D02*
G75*
G02*
X77688666Y-35182888I-10500000J0D01*
G01*
X77688666Y-35182888D02*
G75*
G02*
X98688666Y-35182888I10500000J0D01*
G01*
X33229210Y-45205121D02*
G75*
G02*
X12229210Y-45205121I-10500000J0D01*
G01*
X12229210Y-45205121D02*
G75*
G02*
X33229210Y-45205121I10500000J0D01*
G01*
X37000000Y-8500000D02*
G75*
G02*
X28000000Y-8500000I-4500000J0D01*
G01*
X28000000Y-8500000D02*
G75*
G02*
X37000000Y-8500000I4500000J0D01*
G01*
X75929057Y-29393440D02*
G75*
G02*
X54929057Y-29393440I-10500000J0D01*
G01*
X54929057Y-29393440D02*
G75*
G02*
X75929057Y-29393440I10500000J0D01*
G01*
X120500000Y-86500000D02*
G75*
G02*
X93500000Y-86500000I-13500000J0D01*
G01*
X93500000Y-86500000D02*
G75*
G02*
X120500000Y-86500000I13500000J0D01*
G01*
X53573178Y-34475310D02*
G75*
G02*
X32573178Y-34475310I-10500000J0D01*
G01*
X32573178Y-34475310D02*
G75*
G02*
X53573178Y-34475310I10500000J0D01*
G01*
D11*
X1512969Y-2069819D02*
X1036779Y-2069819D01*
X1036779Y-2069819D02*
X1036779Y-1069819D01*
X2322493Y-2069819D02*
X1846303Y-2069819D01*
X1846303Y-2069819D02*
X1846303Y-1069819D01*
X2560589Y-1403152D02*
X2798684Y-2069819D01*
X2798684Y-2069819D02*
X3036779Y-1403152D01*
X3370113Y-1165057D02*
X3417732Y-1117438D01*
X3417732Y-1117438D02*
X3512970Y-1069819D01*
X3512970Y-1069819D02*
X3751065Y-1069819D01*
X3751065Y-1069819D02*
X3846303Y-1117438D01*
X3846303Y-1117438D02*
X3893922Y-1165057D01*
X3893922Y-1165057D02*
X3941541Y-1260295D01*
X3941541Y-1260295D02*
X3941541Y-1355533D01*
X3941541Y-1355533D02*
X3893922Y-1498390D01*
X3893922Y-1498390D02*
X3322494Y-2069819D01*
X3322494Y-2069819D02*
X3941541Y-2069819D01*
X4132018Y-2165057D02*
X4893922Y-2165057D01*
X5608208Y-2069819D02*
X5132018Y-2069819D01*
X5132018Y-2069819D02*
X5132018Y-1069819D01*
X6703447Y-2069819D02*
X6703447Y-1069819D01*
X6703447Y-1450771D02*
X6798685Y-1403152D01*
X6798685Y-1403152D02*
X6989161Y-1403152D01*
X6989161Y-1403152D02*
X7084399Y-1450771D01*
X7084399Y-1450771D02*
X7132018Y-1498390D01*
X7132018Y-1498390D02*
X7179637Y-1593628D01*
X7179637Y-1593628D02*
X7179637Y-1879342D01*
X7179637Y-1879342D02*
X7132018Y-1974580D01*
X7132018Y-1974580D02*
X7084399Y-2022200D01*
X7084399Y-2022200D02*
X6989161Y-2069819D01*
X6989161Y-2069819D02*
X6798685Y-2069819D01*
X6798685Y-2069819D02*
X6703447Y-2022200D01*
X7512971Y-1403152D02*
X7751066Y-2069819D01*
X7989161Y-1403152D02*
X7751066Y-2069819D01*
X7751066Y-2069819D02*
X7655828Y-2307914D01*
X7655828Y-2307914D02*
X7608209Y-2355533D01*
X7608209Y-2355533D02*
X7512971Y-2403152D01*
X9084400Y-2022200D02*
X9227257Y-2069819D01*
X9227257Y-2069819D02*
X9465352Y-2069819D01*
X9465352Y-2069819D02*
X9560590Y-2022200D01*
X9560590Y-2022200D02*
X9608209Y-1974580D01*
X9608209Y-1974580D02*
X9655828Y-1879342D01*
X9655828Y-1879342D02*
X9655828Y-1784104D01*
X9655828Y-1784104D02*
X9608209Y-1688866D01*
X9608209Y-1688866D02*
X9560590Y-1641247D01*
X9560590Y-1641247D02*
X9465352Y-1593628D01*
X9465352Y-1593628D02*
X9274876Y-1546009D01*
X9274876Y-1546009D02*
X9179638Y-1498390D01*
X9179638Y-1498390D02*
X9132019Y-1450771D01*
X9132019Y-1450771D02*
X9084400Y-1355533D01*
X9084400Y-1355533D02*
X9084400Y-1260295D01*
X9084400Y-1260295D02*
X9132019Y-1165057D01*
X9132019Y-1165057D02*
X9179638Y-1117438D01*
X9179638Y-1117438D02*
X9274876Y-1069819D01*
X9274876Y-1069819D02*
X9512971Y-1069819D01*
X9512971Y-1069819D02*
X9655828Y-1117438D01*
X10084400Y-2069819D02*
X10084400Y-1069819D01*
X10512971Y-2069819D02*
X10512971Y-1546009D01*
X10512971Y-1546009D02*
X10465352Y-1450771D01*
X10465352Y-1450771D02*
X10370114Y-1403152D01*
X10370114Y-1403152D02*
X10227257Y-1403152D01*
X10227257Y-1403152D02*
X10132019Y-1450771D01*
X10132019Y-1450771D02*
X10084400Y-1498390D01*
X10989162Y-2069819D02*
X10989162Y-1403152D01*
X10989162Y-1069819D02*
X10941543Y-1117438D01*
X10941543Y-1117438D02*
X10989162Y-1165057D01*
X10989162Y-1165057D02*
X11036781Y-1117438D01*
X11036781Y-1117438D02*
X10989162Y-1069819D01*
X10989162Y-1069819D02*
X10989162Y-1165057D01*
X11465352Y-1403152D02*
X11465352Y-2069819D01*
X11465352Y-1498390D02*
X11512971Y-1450771D01*
X11512971Y-1450771D02*
X11608209Y-1403152D01*
X11608209Y-1403152D02*
X11751066Y-1403152D01*
X11751066Y-1403152D02*
X11846304Y-1450771D01*
X11846304Y-1450771D02*
X11893923Y-1546009D01*
X11893923Y-1546009D02*
X11893923Y-2069819D01*
X12370114Y-2069819D02*
X12370114Y-1403152D01*
X12370114Y-1498390D02*
X12417733Y-1450771D01*
X12417733Y-1450771D02*
X12512971Y-1403152D01*
X12512971Y-1403152D02*
X12655828Y-1403152D01*
X12655828Y-1403152D02*
X12751066Y-1450771D01*
X12751066Y-1450771D02*
X12798685Y-1546009D01*
X12798685Y-1546009D02*
X12798685Y-2069819D01*
X12798685Y-1546009D02*
X12846304Y-1450771D01*
X12846304Y-1450771D02*
X12941542Y-1403152D01*
X12941542Y-1403152D02*
X13084399Y-1403152D01*
X13084399Y-1403152D02*
X13179638Y-1450771D01*
X13179638Y-1450771D02*
X13227257Y-1546009D01*
X13227257Y-1546009D02*
X13227257Y-2069819D01*
X14132018Y-2069819D02*
X14132018Y-1546009D01*
X14132018Y-1546009D02*
X14084399Y-1450771D01*
X14084399Y-1450771D02*
X13989161Y-1403152D01*
X13989161Y-1403152D02*
X13798685Y-1403152D01*
X13798685Y-1403152D02*
X13703447Y-1450771D01*
X14132018Y-2022200D02*
X14036780Y-2069819D01*
X14036780Y-2069819D02*
X13798685Y-2069819D01*
X13798685Y-2069819D02*
X13703447Y-2022200D01*
X13703447Y-2022200D02*
X13655828Y-1926961D01*
X13655828Y-1926961D02*
X13655828Y-1831723D01*
X13655828Y-1831723D02*
X13703447Y-1736485D01*
X13703447Y-1736485D02*
X13798685Y-1688866D01*
X13798685Y-1688866D02*
X14036780Y-1688866D01*
X14036780Y-1688866D02*
X14132018Y-1641247D01*
X15227257Y-1069819D02*
X15798685Y-1069819D01*
X15512971Y-2069819D02*
X15512971Y-1069819D01*
X16560590Y-2069819D02*
X16560590Y-1546009D01*
X16560590Y-1546009D02*
X16512971Y-1450771D01*
X16512971Y-1450771D02*
X16417733Y-1403152D01*
X16417733Y-1403152D02*
X16227257Y-1403152D01*
X16227257Y-1403152D02*
X16132019Y-1450771D01*
X16560590Y-2022200D02*
X16465352Y-2069819D01*
X16465352Y-2069819D02*
X16227257Y-2069819D01*
X16227257Y-2069819D02*
X16132019Y-2022200D01*
X16132019Y-2022200D02*
X16084400Y-1926961D01*
X16084400Y-1926961D02*
X16084400Y-1831723D01*
X16084400Y-1831723D02*
X16132019Y-1736485D01*
X16132019Y-1736485D02*
X16227257Y-1688866D01*
X16227257Y-1688866D02*
X16465352Y-1688866D01*
X16465352Y-1688866D02*
X16560590Y-1641247D01*
X17036781Y-2069819D02*
X17036781Y-1069819D01*
X17132019Y-1688866D02*
X17417733Y-2069819D01*
X17417733Y-1403152D02*
X17036781Y-1784104D01*
X18274876Y-2069819D02*
X18274876Y-1546009D01*
X18274876Y-1546009D02*
X18227257Y-1450771D01*
X18227257Y-1450771D02*
X18132019Y-1403152D01*
X18132019Y-1403152D02*
X17941543Y-1403152D01*
X17941543Y-1403152D02*
X17846305Y-1450771D01*
X18274876Y-2022200D02*
X18179638Y-2069819D01*
X18179638Y-2069819D02*
X17941543Y-2069819D01*
X17941543Y-2069819D02*
X17846305Y-2022200D01*
X17846305Y-2022200D02*
X17798686Y-1926961D01*
X17798686Y-1926961D02*
X17798686Y-1831723D01*
X17798686Y-1831723D02*
X17846305Y-1736485D01*
X17846305Y-1736485D02*
X17941543Y-1688866D01*
X17941543Y-1688866D02*
X18179638Y-1688866D01*
X18179638Y-1688866D02*
X18274876Y-1641247D01*
X18751067Y-2069819D02*
X18751067Y-1069819D01*
X19179638Y-2069819D02*
X19179638Y-1546009D01*
X19179638Y-1546009D02*
X19132019Y-1450771D01*
X19132019Y-1450771D02*
X19036781Y-1403152D01*
X19036781Y-1403152D02*
X18893924Y-1403152D01*
X18893924Y-1403152D02*
X18798686Y-1450771D01*
X18798686Y-1450771D02*
X18751067Y-1498390D01*
X20084400Y-2069819D02*
X20084400Y-1546009D01*
X20084400Y-1546009D02*
X20036781Y-1450771D01*
X20036781Y-1450771D02*
X19941543Y-1403152D01*
X19941543Y-1403152D02*
X19751067Y-1403152D01*
X19751067Y-1403152D02*
X19655829Y-1450771D01*
X20084400Y-2022200D02*
X19989162Y-2069819D01*
X19989162Y-2069819D02*
X19751067Y-2069819D01*
X19751067Y-2069819D02*
X19655829Y-2022200D01*
X19655829Y-2022200D02*
X19608210Y-1926961D01*
X19608210Y-1926961D02*
X19608210Y-1831723D01*
X19608210Y-1831723D02*
X19655829Y-1736485D01*
X19655829Y-1736485D02*
X19751067Y-1688866D01*
X19751067Y-1688866D02*
X19989162Y-1688866D01*
X19989162Y-1688866D02*
X20084400Y-1641247D01*
X20512972Y-2022200D02*
X20608210Y-2069819D01*
X20608210Y-2069819D02*
X20798686Y-2069819D01*
X20798686Y-2069819D02*
X20893924Y-2022200D01*
X20893924Y-2022200D02*
X20941543Y-1926961D01*
X20941543Y-1926961D02*
X20941543Y-1879342D01*
X20941543Y-1879342D02*
X20893924Y-1784104D01*
X20893924Y-1784104D02*
X20798686Y-1736485D01*
X20798686Y-1736485D02*
X20655829Y-1736485D01*
X20655829Y-1736485D02*
X20560591Y-1688866D01*
X20560591Y-1688866D02*
X20512972Y-1593628D01*
X20512972Y-1593628D02*
X20512972Y-1546009D01*
X20512972Y-1546009D02*
X20560591Y-1450771D01*
X20560591Y-1450771D02*
X20655829Y-1403152D01*
X20655829Y-1403152D02*
X20798686Y-1403152D01*
X20798686Y-1403152D02*
X20893924Y-1450771D01*
X21370115Y-2069819D02*
X21370115Y-1069819D01*
X21798686Y-2069819D02*
X21798686Y-1546009D01*
X21798686Y-1546009D02*
X21751067Y-1450771D01*
X21751067Y-1450771D02*
X21655829Y-1403152D01*
X21655829Y-1403152D02*
X21512972Y-1403152D01*
X21512972Y-1403152D02*
X21417734Y-1450771D01*
X21417734Y-1450771D02*
X21370115Y-1498390D01*
X22274877Y-2069819D02*
X22274877Y-1403152D01*
X22274877Y-1069819D02*
X22227258Y-1117438D01*
X22227258Y-1117438D02*
X22274877Y-1165057D01*
X22274877Y-1165057D02*
X22322496Y-1117438D01*
X22322496Y-1117438D02*
X22274877Y-1069819D01*
X22274877Y-1069819D02*
X22274877Y-1165057D01*
X6666667Y-3704819D02*
X6666667Y-2704819D01*
X6666667Y-3181009D02*
X7238095Y-3181009D01*
X7238095Y-3704819D02*
X7238095Y-2704819D01*
X7857143Y-3704819D02*
X7761905Y-3657200D01*
X7761905Y-3657200D02*
X7714286Y-3609580D01*
X7714286Y-3609580D02*
X7666667Y-3514342D01*
X7666667Y-3514342D02*
X7666667Y-3228628D01*
X7666667Y-3228628D02*
X7714286Y-3133390D01*
X7714286Y-3133390D02*
X7761905Y-3085771D01*
X7761905Y-3085771D02*
X7857143Y-3038152D01*
X7857143Y-3038152D02*
X8000000Y-3038152D01*
X8000000Y-3038152D02*
X8095238Y-3085771D01*
X8095238Y-3085771D02*
X8142857Y-3133390D01*
X8142857Y-3133390D02*
X8190476Y-3228628D01*
X8190476Y-3228628D02*
X8190476Y-3514342D01*
X8190476Y-3514342D02*
X8142857Y-3609580D01*
X8142857Y-3609580D02*
X8095238Y-3657200D01*
X8095238Y-3657200D02*
X8000000Y-3704819D01*
X8000000Y-3704819D02*
X7857143Y-3704819D01*
X8619048Y-3704819D02*
X8619048Y-3038152D01*
X8619048Y-3133390D02*
X8666667Y-3085771D01*
X8666667Y-3085771D02*
X8761905Y-3038152D01*
X8761905Y-3038152D02*
X8904762Y-3038152D01*
X8904762Y-3038152D02*
X9000000Y-3085771D01*
X9000000Y-3085771D02*
X9047619Y-3181009D01*
X9047619Y-3181009D02*
X9047619Y-3704819D01*
X9047619Y-3181009D02*
X9095238Y-3085771D01*
X9095238Y-3085771D02*
X9190476Y-3038152D01*
X9190476Y-3038152D02*
X9333333Y-3038152D01*
X9333333Y-3038152D02*
X9428572Y-3085771D01*
X9428572Y-3085771D02*
X9476191Y-3181009D01*
X9476191Y-3181009D02*
X9476191Y-3704819D01*
X10333333Y-3657200D02*
X10238095Y-3704819D01*
X10238095Y-3704819D02*
X10047619Y-3704819D01*
X10047619Y-3704819D02*
X9952381Y-3657200D01*
X9952381Y-3657200D02*
X9904762Y-3561961D01*
X9904762Y-3561961D02*
X9904762Y-3181009D01*
X9904762Y-3181009D02*
X9952381Y-3085771D01*
X9952381Y-3085771D02*
X10047619Y-3038152D01*
X10047619Y-3038152D02*
X10238095Y-3038152D01*
X10238095Y-3038152D02*
X10333333Y-3085771D01*
X10333333Y-3085771D02*
X10380952Y-3181009D01*
X10380952Y-3181009D02*
X10380952Y-3276247D01*
X10380952Y-3276247D02*
X9904762Y-3371485D01*
X107000000Y-78186128D02*
X107000000Y-77043271D01*
X106714286Y-77328985D02*
X107000000Y-77043271D01*
X107000000Y-77043271D02*
X107285714Y-77328985D01*
X87617237Y-26297588D02*
X88760095Y-26297588D01*
X88474380Y-26583302D02*
X88760095Y-26297588D01*
X88760095Y-26297588D02*
X88474380Y-26011873D01*
X43644607Y-25590010D02*
X42501749Y-25590010D01*
X42787464Y-25875724D02*
X42501749Y-25590010D01*
X42501749Y-25590010D02*
X42787464Y-25304295D01*
X65429057Y-19936711D02*
X65429057Y-21079568D01*
X65714771Y-20793854D02*
X65429057Y-21079568D01*
X65429057Y-21079568D02*
X65143343Y-20793854D01*
D12*
X119407419Y-6508333D02*
X120121704Y-6508333D01*
X120121704Y-6508333D02*
X120264561Y-6555952D01*
X120264561Y-6555952D02*
X120359800Y-6651190D01*
X120359800Y-6651190D02*
X120407419Y-6794047D01*
X120407419Y-6794047D02*
X120407419Y-6889285D01*
X120407419Y-5508333D02*
X120407419Y-6079761D01*
X120407419Y-5794047D02*
X119407419Y-5794047D01*
X119407419Y-5794047D02*
X119550276Y-5889285D01*
X119550276Y-5889285D02*
X119645514Y-5984523D01*
X119645514Y-5984523D02*
X119693133Y-6079761D01*
D11*
X30833333Y-3704819D02*
X30833333Y-2704819D01*
X30833333Y-2704819D02*
X31166666Y-3419104D01*
X31166666Y-3419104D02*
X31499999Y-2704819D01*
X31499999Y-2704819D02*
X31499999Y-3704819D01*
X32357142Y-3657200D02*
X32261904Y-3704819D01*
X32261904Y-3704819D02*
X32071428Y-3704819D01*
X32071428Y-3704819D02*
X31976190Y-3657200D01*
X31976190Y-3657200D02*
X31928571Y-3561961D01*
X31928571Y-3561961D02*
X31928571Y-3181009D01*
X31928571Y-3181009D02*
X31976190Y-3085771D01*
X31976190Y-3085771D02*
X32071428Y-3038152D01*
X32071428Y-3038152D02*
X32261904Y-3038152D01*
X32261904Y-3038152D02*
X32357142Y-3085771D01*
X32357142Y-3085771D02*
X32404761Y-3181009D01*
X32404761Y-3181009D02*
X32404761Y-3276247D01*
X32404761Y-3276247D02*
X31928571Y-3371485D01*
X32833333Y-3038152D02*
X32833333Y-3704819D01*
X32833333Y-3133390D02*
X32880952Y-3085771D01*
X32880952Y-3085771D02*
X32976190Y-3038152D01*
X32976190Y-3038152D02*
X33119047Y-3038152D01*
X33119047Y-3038152D02*
X33214285Y-3085771D01*
X33214285Y-3085771D02*
X33261904Y-3181009D01*
X33261904Y-3181009D02*
X33261904Y-3704819D01*
X34166666Y-3038152D02*
X34166666Y-3704819D01*
X33738095Y-3038152D02*
X33738095Y-3561961D01*
X33738095Y-3561961D02*
X33785714Y-3657200D01*
X33785714Y-3657200D02*
X33880952Y-3704819D01*
X33880952Y-3704819D02*
X34023809Y-3704819D01*
X34023809Y-3704819D02*
X34119047Y-3657200D01*
X34119047Y-3657200D02*
X34166666Y-3609580D01*
X22562543Y-36659940D02*
X22086353Y-36659940D01*
X22086353Y-36659940D02*
X22086353Y-35659940D01*
X22800639Y-35659940D02*
X23419686Y-35659940D01*
X23419686Y-35659940D02*
X23086353Y-36040892D01*
X23086353Y-36040892D02*
X23229210Y-36040892D01*
X23229210Y-36040892D02*
X23324448Y-36088511D01*
X23324448Y-36088511D02*
X23372067Y-36136130D01*
X23372067Y-36136130D02*
X23419686Y-36231368D01*
X23419686Y-36231368D02*
X23419686Y-36469463D01*
X23419686Y-36469463D02*
X23372067Y-36564701D01*
X23372067Y-36564701D02*
X23324448Y-36612321D01*
X23324448Y-36612321D02*
X23229210Y-36659940D01*
X23229210Y-36659940D02*
X22943496Y-36659940D01*
X22943496Y-36659940D02*
X22848258Y-36612321D01*
X22848258Y-36612321D02*
X22800639Y-36564701D01*
X18880952Y-3657200D02*
X19023809Y-3704819D01*
X19023809Y-3704819D02*
X19261904Y-3704819D01*
X19261904Y-3704819D02*
X19357142Y-3657200D01*
X19357142Y-3657200D02*
X19404761Y-3609580D01*
X19404761Y-3609580D02*
X19452380Y-3514342D01*
X19452380Y-3514342D02*
X19452380Y-3419104D01*
X19452380Y-3419104D02*
X19404761Y-3323866D01*
X19404761Y-3323866D02*
X19357142Y-3276247D01*
X19357142Y-3276247D02*
X19261904Y-3228628D01*
X19261904Y-3228628D02*
X19071428Y-3181009D01*
X19071428Y-3181009D02*
X18976190Y-3133390D01*
X18976190Y-3133390D02*
X18928571Y-3085771D01*
X18928571Y-3085771D02*
X18880952Y-2990533D01*
X18880952Y-2990533D02*
X18880952Y-2895295D01*
X18880952Y-2895295D02*
X18928571Y-2800057D01*
X18928571Y-2800057D02*
X18976190Y-2752438D01*
X18976190Y-2752438D02*
X19071428Y-2704819D01*
X19071428Y-2704819D02*
X19309523Y-2704819D01*
X19309523Y-2704819D02*
X19452380Y-2752438D01*
X19738095Y-3038152D02*
X20119047Y-3038152D01*
X19880952Y-2704819D02*
X19880952Y-3561961D01*
X19880952Y-3561961D02*
X19928571Y-3657200D01*
X19928571Y-3657200D02*
X20023809Y-3704819D01*
X20023809Y-3704819D02*
X20119047Y-3704819D01*
X20880952Y-3704819D02*
X20880952Y-3181009D01*
X20880952Y-3181009D02*
X20833333Y-3085771D01*
X20833333Y-3085771D02*
X20738095Y-3038152D01*
X20738095Y-3038152D02*
X20547619Y-3038152D01*
X20547619Y-3038152D02*
X20452381Y-3085771D01*
X20880952Y-3657200D02*
X20785714Y-3704819D01*
X20785714Y-3704819D02*
X20547619Y-3704819D01*
X20547619Y-3704819D02*
X20452381Y-3657200D01*
X20452381Y-3657200D02*
X20404762Y-3561961D01*
X20404762Y-3561961D02*
X20404762Y-3466723D01*
X20404762Y-3466723D02*
X20452381Y-3371485D01*
X20452381Y-3371485D02*
X20547619Y-3323866D01*
X20547619Y-3323866D02*
X20785714Y-3323866D01*
X20785714Y-3323866D02*
X20880952Y-3276247D01*
X21357143Y-3704819D02*
X21357143Y-3038152D01*
X21357143Y-3228628D02*
X21404762Y-3133390D01*
X21404762Y-3133390D02*
X21452381Y-3085771D01*
X21452381Y-3085771D02*
X21547619Y-3038152D01*
X21547619Y-3038152D02*
X21642857Y-3038152D01*
X21833334Y-3038152D02*
X22214286Y-3038152D01*
X21976191Y-2704819D02*
X21976191Y-3561961D01*
X21976191Y-3561961D02*
X22023810Y-3657200D01*
X22023810Y-3657200D02*
X22119048Y-3704819D01*
X22119048Y-3704819D02*
X22214286Y-3704819D01*
D13*
G04 #@! TO.C,Home*
X5000000Y-7750000D02*
X5000000Y-9250000D01*
X6250000Y-11750000D02*
X10750000Y-11750000D01*
X10750000Y-5250000D02*
X6250000Y-5250000D01*
X12000000Y-9250000D02*
X12000000Y-7750000D01*
G04 #@! TO.C,\u2191*
X99400000Y-78900000D02*
X99400000Y-94100000D01*
X99400000Y-78900000D02*
X114600000Y-78900000D01*
X99400000Y-94100000D02*
X114600000Y-94100000D01*
X114600000Y-94100000D02*
X114600000Y-78900000D01*
G04 #@! TO.C,\u2192*
X80588666Y-27582888D02*
X80588666Y-42782888D01*
X80588666Y-27582888D02*
X95788666Y-27582888D01*
X80588666Y-42782888D02*
X95788666Y-42782888D01*
X95788666Y-42782888D02*
X95788666Y-27582888D01*
G04 #@! TO.C,\u2190*
X35473178Y-26875310D02*
X35473178Y-42075310D01*
X35473178Y-26875310D02*
X50673178Y-26875310D01*
X35473178Y-42075310D02*
X50673178Y-42075310D01*
X50673178Y-42075310D02*
X50673178Y-26875310D01*
G04 #@! TO.C,\u2193*
X57829057Y-21793440D02*
X57829057Y-36993440D01*
X57829057Y-21793440D02*
X73029057Y-21793440D01*
X57829057Y-36993440D02*
X73029057Y-36993440D01*
X73029057Y-36993440D02*
X73029057Y-21793440D01*
G04 #@! TO.C,J1*
D12*
X117000000Y-12000000D02*
X123000000Y-12000000D01*
X123000000Y0D01*
X117000000Y0D01*
X117000000Y-12000000D01*
D13*
G04 #@! TO.C,Menu*
X29000000Y-7750000D02*
X29000000Y-9250000D01*
X30250000Y-11750000D02*
X34750000Y-11750000D01*
X34750000Y-5250000D02*
X30250000Y-5250000D01*
X36000000Y-9250000D02*
X36000000Y-7750000D01*
G04 #@! TO.C,L3*
X15129210Y-37605121D02*
X15129210Y-52805121D01*
X15129210Y-37605121D02*
X30329210Y-37605121D01*
X15129210Y-52805121D02*
X30329210Y-52805121D01*
X30329210Y-52805121D02*
X30329210Y-37605121D01*
G04 #@! TO.C,Start*
X17000000Y-7750000D02*
X17000000Y-9250000D01*
X18250000Y-11750000D02*
X22750000Y-11750000D01*
X22750000Y-5250000D02*
X18250000Y-5250000D01*
X24000000Y-9250000D02*
X24000000Y-7750000D01*
G04 #@! TD*
%LPC*%
D14*
G04 #@! TO.C,Home*
X5250000Y-6250000D03*
X11750000Y-6250000D03*
X5250000Y-10750000D03*
X11750000Y-10750000D03*
G04 #@! TD*
D15*
G04 #@! TO.C,IC1*
X106270000Y-58270000D03*
X101190000Y-55730000D03*
X98650000Y-55730000D03*
X96110000Y-55730000D03*
X93570000Y-55730000D03*
X91030000Y-55730000D03*
X88490000Y-55730000D03*
X85950000Y-55730000D03*
X83410000Y-55730000D03*
X80870000Y-55730000D03*
X78330000Y-55730000D03*
X75790000Y-55730000D03*
X73250000Y-55730000D03*
X70710000Y-55730000D03*
X68170000Y-60810000D03*
X68170000Y-63350000D03*
X68170000Y-65890000D03*
X68170000Y-68430000D03*
X68170000Y-70970000D03*
X70710000Y-76050000D03*
X73250000Y-76050000D03*
X75790000Y-76050000D03*
X78330000Y-76050000D03*
X80870000Y-76050000D03*
X83410000Y-76050000D03*
X85950000Y-76050000D03*
X88490000Y-76050000D03*
X91030000Y-76050000D03*
X93570000Y-76050000D03*
X96110000Y-76050000D03*
X98650000Y-76050000D03*
X101190000Y-76050000D03*
X103730000Y-76050000D03*
X106270000Y-70970000D03*
G04 #@! TD*
D16*
G04 #@! TO.C,\u2191*
X107000000Y-92400000D03*
X102000000Y-90300000D03*
G04 #@! TD*
G04 #@! TO.C,\u2192*
X88188666Y-41082888D03*
X83188666Y-38982888D03*
G04 #@! TD*
G04 #@! TO.C,\u2190*
X43073178Y-40375310D03*
X38073178Y-38275310D03*
G04 #@! TD*
G04 #@! TO.C,\u2193*
X65429057Y-35293440D03*
X60429057Y-33193440D03*
G04 #@! TD*
D17*
G04 #@! TO.C,J1*
X122250000Y-6300000D03*
X122250000Y-10400000D03*
X117750000Y-11500000D03*
X122250000Y-3200000D03*
G04 #@! TD*
D14*
G04 #@! TO.C,Menu*
X29250000Y-6250000D03*
X35750000Y-6250000D03*
X29250000Y-10750000D03*
X35750000Y-10750000D03*
G04 #@! TD*
D16*
G04 #@! TO.C,L3*
X22729210Y-51105121D03*
X17729210Y-49005121D03*
G04 #@! TD*
D14*
G04 #@! TO.C,Start*
X17250000Y-6250000D03*
X23750000Y-6250000D03*
X17250000Y-10750000D03*
X23750000Y-10750000D03*
G04 #@! TD*
%LPD*%
M02*
