M48
; DRILL file {KiCad 8.0.2} date 2024-05-28T17:16:40+0900
; FORMAT={-:-/ absolute / metric / decimal}
; #@! TF.CreationDate,2024-05-28T17:16:40+09:00
; #@! TF.GenerationSoftware,Kicad,Pcbnew,8.0.2
; #@! TF.FileFunction,MixedPlating,1,2
FMAT,2
METRIC
; #@! TA.AperFunction,Plated,PTH,ComponentDrill
T1C1.100
; #@! TA.AperFunction,Plated,PTH,ComponentDrill
T2C1.110
; #@! TA.AperFunction,Plated,PTH,ComponentDrill
T3C1.200
%
G90
G05
T1
X5.25Y-6.25
X5.25Y-10.75
X11.75Y-6.25
X11.75Y-10.75
X17.25Y-6.25
X17.25Y-10.75
X23.75Y-6.25
X23.75Y-10.75
X29.25Y-6.25
X29.25Y-10.75
X35.75Y-6.25
X35.75Y-10.75
T2
X68.17Y-60.81
X68.17Y-63.35
X68.17Y-65.89
X68.17Y-68.43
X68.17Y-70.97
X70.71Y-55.73
X70.71Y-76.05
X73.25Y-55.73
X73.25Y-76.05
X75.79Y-55.73
X75.79Y-76.05
X78.33Y-55.73
X78.33Y-76.05
X80.87Y-55.73
X80.87Y-76.05
X83.41Y-55.73
X83.41Y-76.05
X85.95Y-55.73
X85.95Y-76.05
X88.49Y-55.73
X88.49Y-76.05
X91.03Y-55.73
X91.03Y-76.05
X93.57Y-55.73
X93.57Y-76.05
X96.11Y-55.73
X96.11Y-76.05
X98.65Y-55.73
X98.65Y-76.05
X101.19Y-55.73
X101.19Y-76.05
X103.73Y-76.05
X106.27Y-58.27
X106.27Y-70.97
T3
X17.729Y-49.005
X22.729Y-51.105
X38.073Y-38.275
X43.073Y-40.375
X60.429Y-33.193
X65.429Y-35.293
X83.189Y-38.983
X88.189Y-41.083
X102.0Y-90.3
X107.0Y-92.4
X117.75Y-11.5
X122.25Y-3.2
X122.25Y-6.3
X122.25Y-10.4
M30
