G04 #@! TF.GenerationSoftware,KiCad,Pcbnew,8.0.2*
G04 #@! TF.CreationDate,2024-05-28T17:16:42+09:00*
G04 #@! TF.ProjectId,LLv2_L,4c4c7632-5f4c-42e6-9b69-6361645f7063,rev?*
G04 #@! TF.SameCoordinates,Original*
G04 #@! TF.FileFunction,Profile,NP*
%FSLAX46Y46*%
G04 Gerber Fmt 4.6, Leading zero omitted, Abs format (unit mm)*
G04 Created by KiCad (PCBNEW 8.0.2) date 2024-05-28 17:16:42*
%MOMM*%
%LPD*%
G01*
G04 APERTURE LIST*
G04 #@! TA.AperFunction,Profile*
%ADD10C,0.050000*%
G04 #@! TD*
G04 #@! TA.AperFunction,Profile*
%ADD11C,0.100000*%
G04 #@! TD*
G04 #@! TA.AperFunction,Profile*
%ADD12C,0.200000*%
G04 #@! TD*
G04 APERTURE END LIST*
D10*
X124500000Y-20000000D02*
G75*
G02*
X121500000Y-20000000I-1500000J0D01*
G01*
X121500000Y-20000000D02*
G75*
G02*
X124500000Y-20000000I1500000J0D01*
G01*
D11*
X1500000Y0D02*
X126500000Y0D01*
X128000000Y-105929000D02*
X128000000Y-1500000D01*
X1032353Y-66339553D02*
X126032471Y-107354339D01*
X0Y-64913565D02*
X0Y-1500000D01*
D10*
X6500000Y-20000000D02*
G75*
G02*
X3500000Y-20000000I-1500000J0D01*
G01*
X3500000Y-20000000D02*
G75*
G02*
X6500000Y-20000000I1500000J0D01*
G01*
D11*
X126500000Y0D02*
G75*
G02*
X128000000Y-1500000I0J-1500000D01*
G01*
D10*
X6500000Y-62379000D02*
G75*
G02*
X3500000Y-62379000I-1500000J0D01*
G01*
X3500000Y-62379000D02*
G75*
G02*
X6500000Y-62379000I1500000J0D01*
G01*
D11*
X1032345Y-66338802D02*
G75*
G02*
X-4Y-64913565I468265J1425682D01*
G01*
X0Y-1500000D02*
G75*
G02*
X1500000Y0I1499997J3D01*
G01*
X128000000Y-105929098D02*
G75*
G02*
X126032500Y-107354249I-1499900J-2D01*
G01*
D10*
X53969565Y-24097067D02*
G75*
G02*
X50969565Y-24097067I-1500000J0D01*
G01*
X50969565Y-24097067D02*
G75*
G02*
X53969565Y-24097067I1500000J0D01*
G01*
X124500000Y-101097000D02*
G75*
G02*
X121500000Y-101097000I-1500000J0D01*
G01*
X121500000Y-101097000D02*
G75*
G02*
X124500000Y-101097000I1500000J0D01*
G01*
D12*
G04 #@! TO.C,IC1*
X69440000Y-57000000D02*
X69440000Y-74780000D01*
X69440000Y-57000000D02*
X105000000Y-57000000D01*
X105000000Y-62080000D02*
X105000000Y-57000000D01*
X105000000Y-62080000D02*
X107540000Y-62080000D01*
X105000000Y-69700000D02*
X107540000Y-69700000D01*
X105000000Y-74780000D02*
X69440000Y-74780000D01*
X105000000Y-74780000D02*
X105000000Y-69700000D01*
X107540000Y-69700000D02*
X107540000Y-62080000D01*
D10*
G04 #@! TO.C,\u2191*
X109525000Y-86500000D02*
G75*
G02*
X104475000Y-86500000I-2525000J0D01*
G01*
X104475000Y-86500000D02*
G75*
G02*
X109525000Y-86500000I2525000J0D01*
G01*
G04 #@! TO.C,\u2192*
X90713666Y-35182888D02*
G75*
G02*
X85663666Y-35182888I-2525000J0D01*
G01*
X85663666Y-35182888D02*
G75*
G02*
X90713666Y-35182888I2525000J0D01*
G01*
G04 #@! TO.C,\u2190*
X45598178Y-34475310D02*
G75*
G02*
X40548178Y-34475310I-2525000J0D01*
G01*
X40548178Y-34475310D02*
G75*
G02*
X45598178Y-34475310I2525000J0D01*
G01*
G04 #@! TO.C,\u2193*
X67954057Y-29393440D02*
G75*
G02*
X62904057Y-29393440I-2525000J0D01*
G01*
X62904057Y-29393440D02*
G75*
G02*
X67954057Y-29393440I2525000J0D01*
G01*
D11*
G04 #@! TO.C,J1*
X120550000Y-1600000D02*
G75*
G02*
X119450000Y-1600000I-550000J0D01*
G01*
X119450000Y-1600000D02*
G75*
G02*
X120550000Y-1600000I550000J0D01*
G01*
X120550000Y-8600000D02*
G75*
G02*
X119450000Y-8600000I-550000J0D01*
G01*
X119450000Y-8600000D02*
G75*
G02*
X120550000Y-8600000I550000J0D01*
G01*
D10*
G04 #@! TO.C,L3*
X25254210Y-45205121D02*
G75*
G02*
X20204210Y-45205121I-2525000J0D01*
G01*
X20204210Y-45205121D02*
G75*
G02*
X25254210Y-45205121I2525000J0D01*
G01*
G04 #@! TD*
M02*
