G04 #@! TF.GenerationSoftware,KiCad,Pcbnew,8.0.2*
G04 #@! TF.CreationDate,2024-05-28T17:16:42+09:00*
G04 #@! TF.ProjectId,LLv2_L,4c4c7632-5f4c-42e6-9b69-6361645f7063,rev?*
G04 #@! TF.SameCoordinates,Original*
G04 #@! TF.FileFunction,Copper,L1,Top*
G04 #@! TF.FilePolarity,Positive*
%FSLAX46Y46*%
G04 Gerber Fmt 4.6, Leading zero omitted, Abs format (unit mm)*
G04 Created by KiCad (PCBNEW 8.0.2) date 2024-05-28 17:16:42*
%MOMM*%
%LPD*%
G01*
G04 APERTURE LIST*
G04 #@! TA.AperFunction,ComponentPad*
%ADD10C,2.000000*%
G04 #@! TD*
G04 #@! TA.AperFunction,ComponentPad*
%ADD11C,1.665000*%
G04 #@! TD*
G04 #@! TA.AperFunction,ComponentPad*
%ADD12C,2.200000*%
G04 #@! TD*
G04 #@! TA.AperFunction,ComponentPad*
%ADD13C,1.800000*%
G04 #@! TD*
G04 #@! TA.AperFunction,Conductor*
%ADD14C,0.200000*%
G04 #@! TD*
G04 APERTURE END LIST*
D10*
G04 #@! TO.P,Home,1,1*
G04 #@! TO.N,Net-(IC1-GND_3)*
X5250000Y-6250000D03*
X11750000Y-6250000D03*
G04 #@! TO.P,Home,2,2*
G04 #@! TO.N,Net-(IC1-10)*
X5250000Y-10750000D03*
X11750000Y-10750000D03*
G04 #@! TD*
D11*
G04 #@! TO.P,IC1,1,GND_1*
G04 #@! TO.N,Net-(IC1-GND_1)*
X106270000Y-58270000D03*
G04 #@! TO.P,IC1,2,0*
G04 #@! TO.N,Net-(IC1-0)*
X101190000Y-55730000D03*
G04 #@! TO.P,IC1,3,1*
G04 #@! TO.N,Net-(IC1-1)*
X98650000Y-55730000D03*
G04 #@! TO.P,IC1,4,2*
G04 #@! TO.N,unconnected-(IC1-2-Pad4)*
X96110000Y-55730000D03*
G04 #@! TO.P,IC1,5,3*
G04 #@! TO.N,unconnected-(IC1-3-Pad5)*
X93570000Y-55730000D03*
G04 #@! TO.P,IC1,6,4*
G04 #@! TO.N,unconnected-(IC1-4-Pad6)*
X91030000Y-55730000D03*
G04 #@! TO.P,IC1,7,5*
G04 #@! TO.N,unconnected-(IC1-5-Pad7)*
X88490000Y-55730000D03*
G04 #@! TO.P,IC1,8,6*
G04 #@! TO.N,Net-(IC1-6)*
X85950000Y-55730000D03*
G04 #@! TO.P,IC1,9,7*
G04 #@! TO.N,Net-(IC1-7)*
X83410000Y-55730000D03*
G04 #@! TO.P,IC1,10,8*
G04 #@! TO.N,Net-(IC1-8)*
X80870000Y-55730000D03*
G04 #@! TO.P,IC1,11,9*
G04 #@! TO.N,Net-(IC1-9)*
X78330000Y-55730000D03*
G04 #@! TO.P,IC1,12,10*
G04 #@! TO.N,Net-(IC1-10)*
X75790000Y-55730000D03*
G04 #@! TO.P,IC1,13,11*
G04 #@! TO.N,Net-(IC1-11)*
X73250000Y-55730000D03*
G04 #@! TO.P,IC1,14,12*
G04 #@! TO.N,Net-(IC1-12)*
X70710000Y-55730000D03*
G04 #@! TO.P,IC1,15,VBAT*
G04 #@! TO.N,unconnected-(IC1-VBAT-Pad15)*
X68170000Y-60810000D03*
G04 #@! TO.P,IC1,16,3.3V*
G04 #@! TO.N,unconnected-(IC1-3.3V-Pad16)*
X68170000Y-63350000D03*
G04 #@! TO.P,IC1,17,GND_2*
G04 #@! TO.N,Net-(IC1-GND_2)*
X68170000Y-65890000D03*
G04 #@! TO.P,IC1,18,PROGRAM*
G04 #@! TO.N,unconnected-(IC1-PROGRAM-Pad18)*
X68170000Y-68430000D03*
G04 #@! TO.P,IC1,19,ON/OFF*
G04 #@! TO.N,unconnected-(IC1-ON{slash}OFF-Pad19)*
X68170000Y-70970000D03*
G04 #@! TO.P,IC1,20,13*
G04 #@! TO.N,unconnected-(IC1-13-Pad20)*
X70710000Y-76050000D03*
G04 #@! TO.P,IC1,21,14*
G04 #@! TO.N,unconnected-(IC1-14-Pad21)*
X73250000Y-76050000D03*
G04 #@! TO.P,IC1,22,15*
G04 #@! TO.N,unconnected-(IC1-15-Pad22)*
X75790000Y-76050000D03*
G04 #@! TO.P,IC1,23,16*
G04 #@! TO.N,unconnected-(IC1-16-Pad23)*
X78330000Y-76050000D03*
G04 #@! TO.P,IC1,24,17*
G04 #@! TO.N,unconnected-(IC1-17-Pad24)*
X80870000Y-76050000D03*
G04 #@! TO.P,IC1,25,18*
G04 #@! TO.N,unconnected-(IC1-18-Pad25)*
X83410000Y-76050000D03*
G04 #@! TO.P,IC1,26,19*
G04 #@! TO.N,unconnected-(IC1-19-Pad26)*
X85950000Y-76050000D03*
G04 #@! TO.P,IC1,27,20*
G04 #@! TO.N,unconnected-(IC1-20-Pad27)*
X88490000Y-76050000D03*
G04 #@! TO.P,IC1,28,21*
G04 #@! TO.N,unconnected-(IC1-21-Pad28)*
X91030000Y-76050000D03*
G04 #@! TO.P,IC1,29,22*
G04 #@! TO.N,unconnected-(IC1-22-Pad29)*
X93570000Y-76050000D03*
G04 #@! TO.P,IC1,30,23*
G04 #@! TO.N,Net-(IC1-23)*
X96110000Y-76050000D03*
G04 #@! TO.P,IC1,31,3.3V(250_MA_MAX)*
G04 #@! TO.N,unconnected-(IC1-3.3V(250_MA_MAX)-Pad31)*
X98650000Y-76050000D03*
G04 #@! TO.P,IC1,32,GND_3*
G04 #@! TO.N,Net-(IC1-GND_3)*
X101190000Y-76050000D03*
G04 #@! TO.P,IC1,33,VIN_(3.6_TO_5.5_VOLTS)*
G04 #@! TO.N,Net-(IC1-VIN_(3.6_TO_5.5_VOLTS))*
X103730000Y-76050000D03*
G04 #@! TO.P,IC1,34,GND_4*
G04 #@! TO.N,unconnected-(IC1-GND_4-Pad34)*
X106270000Y-70970000D03*
G04 #@! TD*
D12*
G04 #@! TO.P,\u2191,1,1*
G04 #@! TO.N,Net-(IC1-23)*
X107000000Y-92400000D03*
G04 #@! TO.P,\u2191,2,2*
G04 #@! TO.N,Net-(IC1-GND_3)*
X102000000Y-90300000D03*
G04 #@! TD*
G04 #@! TO.P,\u2192,1,1*
G04 #@! TO.N,Net-(IC1-6)*
X88188666Y-41082888D03*
G04 #@! TO.P,\u2192,2,2*
G04 #@! TO.N,Net-(IC1-GND_2)*
X83188666Y-38982888D03*
G04 #@! TD*
G04 #@! TO.P,\u2190,1,1*
G04 #@! TO.N,Net-(IC1-11)*
X43073178Y-40375310D03*
G04 #@! TO.P,\u2190,2,2*
G04 #@! TO.N,Net-(IC1-GND_2)*
X38073178Y-38275310D03*
G04 #@! TD*
G04 #@! TO.P,\u2193,1,1*
G04 #@! TO.N,Net-(IC1-7)*
X65429057Y-35293440D03*
G04 #@! TO.P,\u2193,2,2*
G04 #@! TO.N,Net-(IC1-GND_2)*
X60429057Y-33193440D03*
G04 #@! TD*
D13*
G04 #@! TO.P,J1,R1*
G04 #@! TO.N,Net-(IC1-1)*
X122250000Y-6300000D03*
G04 #@! TO.P,J1,R2*
G04 #@! TO.N,Net-(IC1-0)*
X122250000Y-10400000D03*
G04 #@! TO.P,J1,S*
G04 #@! TO.N,Net-(IC1-GND_1)*
X117750000Y-11500000D03*
G04 #@! TO.P,J1,T*
G04 #@! TO.N,Net-(IC1-VIN_(3.6_TO_5.5_VOLTS))*
X122250000Y-3200000D03*
G04 #@! TD*
D10*
G04 #@! TO.P,Menu,1,1*
G04 #@! TO.N,Net-(IC1-GND_3)*
X29250000Y-6250000D03*
X35750000Y-6250000D03*
G04 #@! TO.P,Menu,2,2*
G04 #@! TO.N,Net-(IC1-8)*
X29250000Y-10750000D03*
X35750000Y-10750000D03*
G04 #@! TD*
D12*
G04 #@! TO.P,L3,1,1*
G04 #@! TO.N,Net-(IC1-12)*
X22729210Y-51105121D03*
G04 #@! TO.P,L3,2,2*
G04 #@! TO.N,Net-(IC1-GND_3)*
X17729210Y-49005121D03*
G04 #@! TD*
D10*
G04 #@! TO.P,Start,1,1*
G04 #@! TO.N,Net-(IC1-GND_3)*
X17250000Y-6250000D03*
X23750000Y-6250000D03*
G04 #@! TO.P,Start,2,2*
G04 #@! TO.N,Net-(IC1-9)*
X17250000Y-10750000D03*
X23750000Y-10750000D03*
G04 #@! TD*
D14*
G04 #@! TO.N,Net-(IC1-10)*
X75790000Y-51781372D02*
X75790000Y-55730000D01*
X13850000Y-12850000D02*
X36858628Y-12850000D01*
X11750000Y-10750000D02*
X13850000Y-12850000D01*
X5250000Y-10750000D02*
X11750000Y-10750000D01*
X36858628Y-12850000D02*
X75790000Y-51781372D01*
G04 #@! TO.N,Net-(IC1-12)*
X22729210Y-51105121D02*
X66085121Y-51105121D01*
X66085121Y-51105121D02*
X70710000Y-55730000D01*
G04 #@! TO.N,Net-(IC1-11)*
X43073178Y-40375310D02*
X57895310Y-40375310D01*
X57895310Y-40375310D02*
X73250000Y-55730000D01*
G04 #@! TO.N,Net-(IC1-7)*
X65429057Y-37749057D02*
X83410000Y-55730000D01*
X65429057Y-35293440D02*
X65429057Y-37749057D01*
G04 #@! TO.N,Net-(IC1-0)*
X121776472Y-9926472D02*
X122250000Y-10400000D01*
X125200000Y-13350000D02*
X125200000Y-31720000D01*
X125200000Y-31720000D02*
X101190000Y-55730000D01*
X122250000Y-10400000D02*
X125200000Y-13350000D01*
G04 #@! TO.N,Net-(IC1-VIN_(3.6_TO_5.5_VOLTS))*
X104907332Y-76050000D02*
X103730000Y-76050000D01*
X125600000Y-55357332D02*
X104907332Y-76050000D01*
X122250000Y-3200000D02*
X125600000Y-6550000D01*
X125600000Y-6550000D02*
X125600000Y-55357332D01*
G04 #@! TO.N,Net-(IC1-9)*
X78330000Y-53755686D02*
X37024314Y-12450000D01*
X37024314Y-12450000D02*
X25450000Y-12450000D01*
X17250000Y-10750000D02*
X23750000Y-10750000D01*
X78330000Y-55730000D02*
X78330000Y-53755686D01*
X25450000Y-12450000D02*
X23750000Y-10750000D01*
G04 #@! TO.N,Net-(IC1-23)*
X96110000Y-76050000D02*
X96110000Y-86810000D01*
X96110000Y-86810000D02*
X101700000Y-92400000D01*
X101700000Y-92400000D02*
X107000000Y-92400000D01*
G04 #@! TO.N,Net-(IC1-8)*
X80870000Y-55730000D02*
X35890000Y-10750000D01*
X35890000Y-10750000D02*
X35750000Y-10750000D01*
X29250000Y-10750000D02*
X35750000Y-10750000D01*
G04 #@! TO.N,Net-(IC1-6)*
X88188666Y-53491334D02*
X85950000Y-55730000D01*
X85950000Y-55270000D02*
X85950000Y-55730000D01*
X88188666Y-41082888D02*
X88188666Y-53491334D01*
G04 #@! TD*
M02*
