G04 #@! TF.GenerationSoftware,KiCad,Pcbnew,8.0.2*
G04 #@! TF.CreationDate,2024-05-28T17:08:08+09:00*
G04 #@! TF.ProjectId,LLv2_R,4c4c7632-5f52-42e6-9b69-6361645f7063,rev?*
G04 #@! TF.SameCoordinates,Original*
G04 #@! TF.FileFunction,Profile,NP*
%FSLAX46Y46*%
G04 Gerber Fmt 4.6, Leading zero omitted, Abs format (unit mm)*
G04 Created by KiCad (PCBNEW 8.0.2) date 2024-05-28 17:08:08*
%MOMM*%
%LPD*%
G01*
G04 APERTURE LIST*
G04 #@! TA.AperFunction,Profile*
%ADD10C,0.050000*%
G04 #@! TD*
G04 #@! TA.AperFunction,Profile*
%ADD11C,0.100000*%
G04 #@! TD*
G04 #@! TA.AperFunction,Profile*
%ADD12C,0.200000*%
G04 #@! TD*
G04 APERTURE END LIST*
D10*
X124500000Y-62378401D02*
G75*
G02*
X121500000Y-62378401I-1500000J0D01*
G01*
X121500000Y-62378401D02*
G75*
G02*
X124500000Y-62378401I1500000J0D01*
G01*
X6500000Y-101097093D02*
G75*
G02*
X3500000Y-101097093I-1500000J0D01*
G01*
X3500000Y-101097093D02*
G75*
G02*
X6500000Y-101097093I1500000J0D01*
G01*
D11*
X128000000Y-64913565D02*
X128000000Y-1500000D01*
X128000000Y-64913565D02*
G75*
G02*
X126967646Y-66338774I-1500600J465D01*
G01*
D10*
X6500000Y-20000000D02*
G75*
G02*
X3500000Y-20000000I-1500000J0D01*
G01*
X3500000Y-20000000D02*
G75*
G02*
X6500000Y-20000000I1500000J0D01*
G01*
D11*
X0Y-1500000D02*
G75*
G02*
X1500000Y0I1499997J3D01*
G01*
X126500000Y0D02*
G75*
G02*
X128000000Y-1500000I0J-1500000D01*
G01*
X126967655Y-66338802D02*
X1973000Y-107354000D01*
D10*
X124500000Y-5000000D02*
G75*
G02*
X121500000Y-5000000I-1500000J0D01*
G01*
X121500000Y-5000000D02*
G75*
G02*
X124500000Y-5000000I1500000J0D01*
G01*
X75115962Y-32515556D02*
G75*
G02*
X72115962Y-32515556I-1500000J0D01*
G01*
X72115962Y-32515556D02*
G75*
G02*
X75115962Y-32515556I1500000J0D01*
G01*
D11*
X1973000Y-107354000D02*
G75*
G02*
X0Y-105929000I-470415J1427051D01*
G01*
X1500000Y0D02*
X126500000Y0D01*
X0Y-105929000D02*
X0Y-1500000D01*
D10*
G04 #@! TO.C,\u00D7*
X42336000Y-46183000D02*
G75*
G02*
X37286000Y-46183000I-2525000J0D01*
G01*
X37286000Y-46183000D02*
G75*
G02*
X42336000Y-46183000I2525000J0D01*
G01*
D11*
G04 #@! TO.C,J1*
X8550000Y-1600000D02*
G75*
G02*
X7450000Y-1600000I-550000J0D01*
G01*
X7450000Y-1600000D02*
G75*
G02*
X8550000Y-1600000I550000J0D01*
G01*
X8550000Y-8600000D02*
G75*
G02*
X7450000Y-8600000I-550000J0D01*
G01*
X7450000Y-8600000D02*
G75*
G02*
X8550000Y-8600000I550000J0D01*
G01*
D10*
G04 #@! TO.C,\u3007*
X63472000Y-40526000D02*
G75*
G02*
X58422000Y-40526000I-2525000J0D01*
G01*
X58422000Y-40526000D02*
G75*
G02*
X63472000Y-40526000I2525000J0D01*
G01*
G04 #@! TO.C,L2*
X23525000Y-86500000D02*
G75*
G02*
X18475000Y-86500000I-2525000J0D01*
G01*
X18475000Y-86500000D02*
G75*
G02*
X23525000Y-86500000I2525000J0D01*
G01*
G04 #@! TO.C,\u25B3*
X66720000Y-18261000D02*
G75*
G02*
X61670000Y-18261000I-2525000J0D01*
G01*
X61670000Y-18261000D02*
G75*
G02*
X66720000Y-18261000I2525000J0D01*
G01*
D12*
G04 #@! TO.C,Teensy4.1*
X20460000Y-62080000D02*
X20460000Y-69700000D01*
X23000000Y-57000000D02*
X23000000Y-62080000D01*
X23000000Y-62080000D02*
X20460000Y-62080000D01*
X23000000Y-69700000D02*
X20460000Y-69700000D01*
X23000000Y-69700000D02*
X23000000Y-74780000D01*
X23000000Y-74780000D02*
X83960000Y-74780000D01*
X83960000Y-57000000D02*
X23000000Y-57000000D01*
X83960000Y-74780000D02*
X83960000Y-57000000D01*
D10*
G04 #@! TO.C,R1*
X90268000Y-23584000D02*
G75*
G02*
X85218000Y-23584000I-2525000J0D01*
G01*
X85218000Y-23584000D02*
G75*
G02*
X90268000Y-23584000I2525000J0D01*
G01*
G04 #@! TO.C,R2*
X84635000Y-45367000D02*
G75*
G02*
X79585000Y-45367000I-2525000J0D01*
G01*
X79585000Y-45367000D02*
G75*
G02*
X84635000Y-45367000I2525000J0D01*
G01*
G04 #@! TO.C,R3*
X22779000Y-35058000D02*
G75*
G02*
X17729000Y-35058000I-2525000J0D01*
G01*
X17729000Y-35058000D02*
G75*
G02*
X22779000Y-35058000I2525000J0D01*
G01*
G04 #@! TO.C,L1*
X109607000Y-40205000D02*
G75*
G02*
X104557000Y-40205000I-2525000J0D01*
G01*
X104557000Y-40205000D02*
G75*
G02*
X109607000Y-40205000I2525000J0D01*
G01*
D11*
G04 #@! TO.C,4090USBCBreakout1*
X14810000Y-11430000D02*
X14810000Y-2540000D01*
X17350000Y-13970000D02*
X32590000Y-13970000D01*
X32590000Y0D02*
X17350000Y0D01*
X35130000Y-2540000D02*
X35130000Y-11430000D01*
X14810000Y-2540000D02*
G75*
G02*
X17350000Y0I2539997J3D01*
G01*
X17350000Y-13970000D02*
G75*
G02*
X14810000Y-11430000I0J2540000D01*
G01*
X32590000Y0D02*
G75*
G02*
X35130000Y-2540000I0J-2540000D01*
G01*
X35130000Y-11430000D02*
G75*
G02*
X32590000Y-13970000I-2540000J0D01*
G01*
D10*
G04 #@! TO.C,\u25A1*
X42336000Y-23933000D02*
G75*
G02*
X37286000Y-23933000I-2525000J0D01*
G01*
X37286000Y-23933000D02*
G75*
G02*
X42336000Y-23933000I2525000J0D01*
G01*
G04 #@! TD*
M02*
