M48
; DRILL file {KiCad 8.0.2} date 2024-05-28T17:08:07+0900
; FORMAT={-:-/ absolute / metric / decimal}
; #@! TF.CreationDate,2024-05-28T17:08:07+09:00
; #@! TF.GenerationSoftware,Kicad,Pcbnew,8.0.2
; #@! TF.FileFunction,MixedPlating,1,2
FMAT,2
METRIC
; #@! TA.AperFunction,Plated,PTH,ComponentDrill
T1C1.000
; #@! TA.AperFunction,Plated,PTH,ComponentDrill
T2C1.110
; #@! TA.AperFunction,Plated,PTH,ComponentDrill
T3C1.200
%
G90
G05
T1
X13.54Y-11.43
X18.62Y-16.51
X21.16Y-16.51
X23.7Y-16.51
X26.24Y-16.51
X28.78Y-16.51
X31.32Y-16.51
X36.4Y-11.43
T2
X21.73Y-58.27
X21.73Y-60.81
X21.73Y-73.51
X26.81Y-55.73
X26.81Y-76.05
X29.35Y-55.73
X30.62Y-76.81
X31.89Y-55.73
X33.16Y-76.81
X34.43Y-55.73
X35.7Y-76.81
X36.97Y-55.73
X38.24Y-76.81
X39.51Y-55.73
X40.78Y-76.81
X42.05Y-55.73
X44.59Y-55.73
X44.59Y-76.05
X47.13Y-55.73
X47.13Y-76.05
X49.67Y-55.73
X49.67Y-76.05
X52.21Y-55.73
X52.21Y-76.05
X54.75Y-55.73
X54.75Y-76.05
X57.29Y-55.73
X57.29Y-76.05
X59.83Y-51.92
X59.83Y-76.05
X62.37Y-55.73
X62.37Y-76.05
X64.91Y-55.73
X64.91Y-76.05
X67.45Y-55.73
X67.45Y-76.05
X69.99Y-55.73
X69.99Y-76.05
X72.53Y-55.73
X72.53Y-76.05
X75.07Y-55.73
X75.07Y-76.05
X77.61Y-55.73
X77.61Y-76.05
X80.15Y-55.73
X80.15Y-76.05
X85.23Y-58.27
X85.23Y-73.51
T3
X5.75Y-11.5
X10.25Y-3.2
X10.25Y-6.3
X10.25Y-10.4
X15.254Y-38.858
X16.0Y-90.3
X20.254Y-40.958
X21.0Y-92.4
X34.811Y-27.733
X34.811Y-49.983
X39.811Y-29.833
X39.811Y-52.083
X55.947Y-44.326
X59.195Y-22.061
X60.947Y-46.426
X64.195Y-24.161
X77.11Y-49.167
X82.11Y-51.267
X82.743Y-27.384
X87.743Y-29.484
X102.082Y-44.005
X107.082Y-46.105
M30
