G04 #@! TF.GenerationSoftware,KiCad,Pcbnew,8.0.2*
G04 #@! TF.CreationDate,2024-05-28T17:08:08+09:00*
G04 #@! TF.ProjectId,LLv2_R,4c4c7632-5f52-42e6-9b69-6361645f7063,rev?*
G04 #@! TF.SameCoordinates,Original*
G04 #@! TF.FileFunction,Legend,Bot*
G04 #@! TF.FilePolarity,Positive*
%FSLAX46Y46*%
G04 Gerber Fmt 4.6, Leading zero omitted, Abs format (unit mm)*
G04 Created by KiCad (PCBNEW 8.0.2) date 2024-05-28 17:08:08*
%MOMM*%
%LPD*%
G01*
G04 APERTURE LIST*
%ADD10C,2.200000*%
%ADD11C,1.800000*%
%ADD12C,1.665000*%
%ADD13C,1.500000*%
G04 APERTURE END LIST*
%LPC*%
D10*
G04 #@! TO.C,\u00D7*
X39811000Y-52083000D03*
X34811000Y-49983000D03*
G04 #@! TD*
D11*
G04 #@! TO.C,J1*
X10250000Y-6300000D03*
X10250000Y-10400000D03*
X5750000Y-11500000D03*
X10250000Y-3200000D03*
G04 #@! TD*
D10*
G04 #@! TO.C,\u3007*
X60947000Y-46426000D03*
X55947000Y-44326000D03*
G04 #@! TD*
G04 #@! TO.C,L2*
X21000000Y-92400000D03*
X16000000Y-90300000D03*
G04 #@! TD*
G04 #@! TO.C,\u25B3*
X64195000Y-24161000D03*
X59195000Y-22061000D03*
G04 #@! TD*
D12*
G04 #@! TO.C,Teensy4.1*
X26810000Y-76050000D03*
X29350000Y-55730000D03*
X30620000Y-76810000D03*
X38240000Y-76810000D03*
X39510000Y-55730000D03*
X40780000Y-76810000D03*
X42050000Y-55730000D03*
X44590000Y-55730000D03*
X47130000Y-55730000D03*
X49670000Y-55730000D03*
X52210000Y-55730000D03*
X52210000Y-76050000D03*
X54750000Y-76050000D03*
X57290000Y-76050000D03*
X59830000Y-76050000D03*
X62370000Y-55730000D03*
X62370000Y-76050000D03*
X64910000Y-55730000D03*
X64910000Y-76050000D03*
X67450000Y-55730000D03*
X67450000Y-76050000D03*
X69990000Y-55730000D03*
X69990000Y-76050000D03*
X72530000Y-55730000D03*
X72530000Y-76050000D03*
X75070000Y-55730000D03*
X75070000Y-76050000D03*
X77610000Y-76050000D03*
X80150000Y-76050000D03*
X85230000Y-73510000D03*
X44590000Y-76050000D03*
X47130000Y-76050000D03*
X49670000Y-76050000D03*
X57290000Y-55730000D03*
X54750000Y-55730000D03*
X36970000Y-55730000D03*
X34430000Y-55730000D03*
X31890000Y-55730000D03*
X85230000Y-58270000D03*
X80150000Y-55730000D03*
X77610000Y-55730000D03*
X35700000Y-76810000D03*
X33160000Y-76810000D03*
X21730000Y-58270000D03*
X21730000Y-60810000D03*
X59830000Y-51920000D03*
X26810000Y-55730000D03*
X21730000Y-73510000D03*
G04 #@! TD*
D10*
G04 #@! TO.C,R1*
X87743000Y-29484000D03*
X82743000Y-27384000D03*
G04 #@! TD*
G04 #@! TO.C,R2*
X82110000Y-51267000D03*
X77110000Y-49167000D03*
G04 #@! TD*
G04 #@! TO.C,R3*
X20254000Y-40958000D03*
X15254000Y-38858000D03*
G04 #@! TD*
G04 #@! TO.C,L1*
X107082000Y-46105000D03*
X102082000Y-44005000D03*
G04 #@! TD*
D13*
G04 #@! TO.C,4090USBCBreakout1*
X13540000Y-11430000D03*
X18620000Y-16510000D03*
X21160000Y-16510000D03*
X23700000Y-16510000D03*
X26240000Y-16510000D03*
X28780000Y-16510000D03*
X31320000Y-16510000D03*
X36400000Y-11430000D03*
G04 #@! TD*
D10*
G04 #@! TO.C,\u25A1*
X39811000Y-29833000D03*
X34811000Y-27733000D03*
G04 #@! TD*
%LPD*%
M02*
