G04 #@! TF.GenerationSoftware,KiCad,Pcbnew,8.0.2*
G04 #@! TF.CreationDate,2024-05-28T17:08:08+09:00*
G04 #@! TF.ProjectId,LLv2_R,4c4c7632-5f52-42e6-9b69-6361645f7063,rev?*
G04 #@! TF.SameCoordinates,Original*
G04 #@! TF.FileFunction,Copper,L2,Bot*
G04 #@! TF.FilePolarity,Positive*
%FSLAX46Y46*%
G04 Gerber Fmt 4.6, Leading zero omitted, Abs format (unit mm)*
G04 Created by KiCad (PCBNEW 8.0.2) date 2024-05-28 17:08:08*
%MOMM*%
%LPD*%
G01*
G04 APERTURE LIST*
G04 #@! TA.AperFunction,ComponentPad*
%ADD10C,2.200000*%
G04 #@! TD*
G04 #@! TA.AperFunction,ComponentPad*
%ADD11C,1.800000*%
G04 #@! TD*
G04 #@! TA.AperFunction,ComponentPad*
%ADD12C,1.665000*%
G04 #@! TD*
G04 #@! TA.AperFunction,ComponentPad*
%ADD13C,1.500000*%
G04 #@! TD*
G04 #@! TA.AperFunction,Conductor*
%ADD14C,0.200000*%
G04 #@! TD*
G04 APERTURE END LIST*
D10*
G04 #@! TO.P,\u00D7,1,1*
G04 #@! TO.N,Net-(Teensy4.1-A7)*
X39811000Y-52083000D03*
G04 #@! TO.P,\u00D7,2,2*
G04 #@! TO.N,Net-(Teensy4.1-GND_4)*
X34811000Y-49983000D03*
G04 #@! TD*
D11*
G04 #@! TO.P,J1,R1*
G04 #@! TO.N,Net-(Teensy4.1-RX2)*
X10250000Y-6300000D03*
G04 #@! TO.P,J1,R2*
G04 #@! TO.N,Net-(Teensy4.1-TX2)*
X10250000Y-10400000D03*
G04 #@! TO.P,J1,S*
G04 #@! TO.N,Net-(Teensy4.1-GND_6)*
X5750000Y-11500000D03*
G04 #@! TO.P,J1,T*
G04 #@! TO.N,Net-(Teensy4.1-VIN_(3.6_TO_5.5_VOLTS))*
X10250000Y-3200000D03*
G04 #@! TD*
D10*
G04 #@! TO.P,\u3007,1,1*
G04 #@! TO.N,Net-(Teensy4.1-SCK)*
X60947000Y-46426000D03*
G04 #@! TO.P,\u3007,2,2*
G04 #@! TO.N,Net-(Teensy4.1-GND_4)*
X55947000Y-44326000D03*
G04 #@! TD*
G04 #@! TO.P,L2,1,1*
G04 #@! TO.N,Net-(Teensy4.1-OUT1C)*
X21000000Y-92400000D03*
G04 #@! TO.P,L2,2,2*
G04 #@! TO.N,Net-(Teensy4.1-GND_6)*
X16000000Y-90300000D03*
G04 #@! TD*
G04 #@! TO.P,\u25B3,1,1*
G04 #@! TO.N,Net-(Teensy4.1-A0)*
X64195000Y-24161000D03*
G04 #@! TO.P,\u25B3,2,2*
G04 #@! TO.N,Net-(Teensy4.1-GND_4)*
X59195000Y-22061000D03*
G04 #@! TD*
D12*
G04 #@! TO.P,Teensy4.1,*
G04 #@! TO.N,*
X26810000Y-76050000D03*
X29350000Y-55730000D03*
X30620000Y-76810000D03*
X38240000Y-76810000D03*
X39510000Y-55730000D03*
X40780000Y-76810000D03*
X42050000Y-55730000D03*
X44590000Y-55730000D03*
X47130000Y-55730000D03*
X49670000Y-55730000D03*
X52210000Y-55730000D03*
X52210000Y-76050000D03*
X54750000Y-76050000D03*
X57290000Y-76050000D03*
X59830000Y-76050000D03*
X62370000Y-55730000D03*
X62370000Y-76050000D03*
X64910000Y-55730000D03*
X64910000Y-76050000D03*
X67450000Y-55730000D03*
X67450000Y-76050000D03*
X69990000Y-55730000D03*
X69990000Y-76050000D03*
X72530000Y-55730000D03*
X72530000Y-76050000D03*
X75070000Y-55730000D03*
X75070000Y-76050000D03*
X77610000Y-76050000D03*
X80150000Y-76050000D03*
X85230000Y-73510000D03*
G04 #@! TO.P,Teensy4.1,7,RX2*
G04 #@! TO.N,Net-(Teensy4.1-RX2)*
X44590000Y-76050000D03*
G04 #@! TO.P,Teensy4.1,8,TX2*
G04 #@! TO.N,Net-(Teensy4.1-TX2)*
X47130000Y-76050000D03*
G04 #@! TO.P,Teensy4.1,9,OUT1C*
G04 #@! TO.N,Net-(Teensy4.1-OUT1C)*
X49670000Y-76050000D03*
G04 #@! TO.P,Teensy4.1,13,SCK*
G04 #@! TO.N,Net-(Teensy4.1-SCK)*
X57290000Y-55730000D03*
G04 #@! TO.P,Teensy4.1,14,A0*
G04 #@! TO.N,Net-(Teensy4.1-A0)*
X54750000Y-55730000D03*
G04 #@! TO.P,Teensy4.1,21,A7*
G04 #@! TO.N,Net-(Teensy4.1-A7)*
X36970000Y-55730000D03*
G04 #@! TO.P,Teensy4.1,22,A8*
G04 #@! TO.N,Net-(Teensy4.1-A8)*
X34430000Y-55730000D03*
G04 #@! TO.P,Teensy4.1,23,A9*
G04 #@! TO.N,Net-(Teensy4.1-A9)*
X31890000Y-55730000D03*
G04 #@! TO.P,Teensy4.1,33,MCLK2*
G04 #@! TO.N,Net-(Teensy4.1-MCLK2)*
X85230000Y-58270000D03*
G04 #@! TO.P,Teensy4.1,34,RX8*
G04 #@! TO.N,Net-(Teensy4.1-RX8)*
X80150000Y-55730000D03*
G04 #@! TO.P,Teensy4.1,35,TX8*
G04 #@! TO.N,Net-(Teensy4.1-TX8)*
X77610000Y-55730000D03*
G04 #@! TO.P,Teensy4.1,50,D+*
G04 #@! TO.N,Net-(4090USBCBreakout1-D+)*
X35700000Y-76810000D03*
G04 #@! TO.P,Teensy4.1,51,D-*
G04 #@! TO.N,Net-(4090USBCBreakout1-D-)*
X33160000Y-76810000D03*
G04 #@! TO.P,Teensy4.1,55,VIN_(3.6_TO_5.5_VOLTS)*
G04 #@! TO.N,Net-(Teensy4.1-VIN_(3.6_TO_5.5_VOLTS))*
X21730000Y-58270000D03*
G04 #@! TO.P,Teensy4.1,68,VUSB*
G04 #@! TO.N,Net-(4090USBCBreakout1-VBUS)*
X21730000Y-60810000D03*
G04 #@! TO.P,Teensy4.1,69,GND_4*
G04 #@! TO.N,Net-(Teensy4.1-GND_4)*
X59830000Y-51920000D03*
G04 #@! TO.P,Teensy4.1,70,GND_5*
G04 #@! TO.N,Net-(4090USBCBreakout1-GND)*
X26810000Y-55730000D03*
G04 #@! TO.P,Teensy4.1,71,GND_6*
G04 #@! TO.N,Net-(Teensy4.1-GND_6)*
X21730000Y-73510000D03*
G04 #@! TD*
D10*
G04 #@! TO.P,R1,1,1*
G04 #@! TO.N,Net-(Teensy4.1-TX8)*
X87743000Y-29484000D03*
G04 #@! TO.P,R1,2,2*
G04 #@! TO.N,Net-(Teensy4.1-GND_4)*
X82743000Y-27384000D03*
G04 #@! TD*
G04 #@! TO.P,R2,1,1*
G04 #@! TO.N,Net-(Teensy4.1-RX8)*
X82110000Y-51267000D03*
G04 #@! TO.P,R2,2,2*
G04 #@! TO.N,Net-(Teensy4.1-GND_4)*
X77110000Y-49167000D03*
G04 #@! TD*
G04 #@! TO.P,R3,1,1*
G04 #@! TO.N,Net-(Teensy4.1-A9)*
X20254000Y-40958000D03*
G04 #@! TO.P,R3,2,2*
G04 #@! TO.N,Net-(Teensy4.1-GND_4)*
X15254000Y-38858000D03*
G04 #@! TD*
G04 #@! TO.P,L1,1,1*
G04 #@! TO.N,Net-(Teensy4.1-MCLK2)*
X107082000Y-46105000D03*
G04 #@! TO.P,L1,2,2*
G04 #@! TO.N,Net-(Teensy4.1-GND_4)*
X102082000Y-44005000D03*
G04 #@! TD*
D13*
G04 #@! TO.P,4090USBCBreakout1,1,CC2*
G04 #@! TO.N,unconnected-(4090USBCBreakout1-CC2-Pad1)*
X13540000Y-11430000D03*
G04 #@! TO.P,4090USBCBreakout1,2,SBU1*
G04 #@! TO.N,unconnected-(4090USBCBreakout1-SBU1-Pad2)*
X18620000Y-16510000D03*
G04 #@! TO.P,4090USBCBreakout1,3,D+*
G04 #@! TO.N,Net-(4090USBCBreakout1-D+)*
X21160000Y-16510000D03*
G04 #@! TO.P,4090USBCBreakout1,4,D-*
G04 #@! TO.N,Net-(4090USBCBreakout1-D-)*
X23700000Y-16510000D03*
G04 #@! TO.P,4090USBCBreakout1,5,CC1*
G04 #@! TO.N,unconnected-(4090USBCBreakout1-CC1-Pad5)*
X26240000Y-16510000D03*
G04 #@! TO.P,4090USBCBreakout1,6,SBU2*
G04 #@! TO.N,unconnected-(4090USBCBreakout1-SBU2-Pad6)*
X28780000Y-16510000D03*
G04 #@! TO.P,4090USBCBreakout1,7,VBUS*
G04 #@! TO.N,Net-(4090USBCBreakout1-VBUS)*
X31320000Y-16510000D03*
G04 #@! TO.P,4090USBCBreakout1,8,GND*
G04 #@! TO.N,Net-(4090USBCBreakout1-GND)*
X36400000Y-11430000D03*
G04 #@! TD*
D10*
G04 #@! TO.P,\u25A1,1,1*
G04 #@! TO.N,Net-(Teensy4.1-A8)*
X39811000Y-29833000D03*
G04 #@! TO.P,\u25A1,2,2*
G04 #@! TO.N,Net-(Teensy4.1-GND_4)*
X34811000Y-27733000D03*
G04 #@! TD*
D14*
G04 #@! TO.N,Net-(Teensy4.1-GND_4)*
X68480000Y-51920000D02*
X70325000Y-50075000D01*
X45800000Y-49983000D02*
X34811000Y-49983000D01*
X92342000Y-53745000D02*
X102082000Y-44005000D01*
X70325000Y-50075000D02*
X81175000Y-39225000D01*
X59830000Y-51920000D02*
X59830000Y-48209000D01*
X59830000Y-51920000D02*
X68480000Y-51920000D01*
X58005000Y-53745000D02*
X59830000Y-51920000D01*
X68550000Y-31416000D02*
X59195000Y-22061000D01*
X59830000Y-48209000D02*
X55947000Y-44326000D01*
X59830000Y-51920000D02*
X35643000Y-27733000D01*
X47737000Y-51920000D02*
X46408500Y-50591500D01*
X61655000Y-53745000D02*
X63800000Y-53745000D01*
X63800000Y-53745000D02*
X92342000Y-53745000D01*
X30141000Y-53745000D02*
X58005000Y-53745000D01*
X34811000Y-28171000D02*
X34811000Y-27733000D01*
X68550000Y-43200000D02*
X68550000Y-42600000D01*
X59830000Y-51920000D02*
X61605000Y-53695000D01*
X82743000Y-37657000D02*
X81175000Y-39225000D01*
X35643000Y-27733000D02*
X34811000Y-27733000D01*
X61605000Y-53695000D02*
X61655000Y-53745000D01*
X59830000Y-51920000D02*
X68550000Y-43200000D01*
X68550000Y-42600000D02*
X68550000Y-31416000D01*
X46408500Y-50591500D02*
X45800000Y-49983000D01*
X15254000Y-38858000D02*
X30141000Y-53745000D01*
X59830000Y-51920000D02*
X47737000Y-51920000D01*
X82743000Y-27384000D02*
X82743000Y-37657000D01*
G04 #@! TO.N,Net-(Teensy4.1-VIN_(3.6_TO_5.5_VOLTS))*
X17015686Y-58270000D02*
X12150000Y-53404314D01*
X21730000Y-58270000D02*
X17015686Y-58270000D01*
X12150000Y-5100000D02*
X10250000Y-3200000D01*
X12150000Y-53404314D02*
X12150000Y-5100000D01*
G04 #@! TO.N,Net-(Teensy4.1-GND_6)*
X11750000Y-17500000D02*
X5750000Y-11500000D01*
X11750000Y-53570000D02*
X11750000Y-17500000D01*
X21730000Y-73510000D02*
X19075000Y-70855000D01*
X16000000Y-79240000D02*
X21730000Y-73510000D01*
X19075000Y-70855000D02*
X19075000Y-60895000D01*
X16000000Y-90300000D02*
X16000000Y-79240000D01*
X19075000Y-60895000D02*
X11750000Y-53570000D01*
G04 #@! TD*
M02*
